# xmcd
#
# Track frame offsets:
#	150
#	22564
#	41434
#	56710
#	78557
#	98835
#	115075
#	133617
#	152886
#	173468
#	192939
#	212320
#	233356
#	253227
#
# Disc length: 3596 seconds
#
# Revision: 1
# Processed by: cddbd v1.5.1PL0 Copyright (c) Steve Scherf et al.
# Submitted via: audiograbber 1.81.03
#
DISCID=a40e0a0e
DTITLE=Totally Insane - Back Street Life
DYEAR=1900
DGENRE=
TTITLE0=Totally Insane - Follow Me
TTITLE1=Totally Insane - Fast Lane
TTITLE2=Totally Insane - 4 - Ever
TTITLE3=Totally Insane - Done Deal
TTITLE4=Totally Insane - Back Street Life (Remix)
TTITLE5=Totally Insane - Murder, Death, Kill
TTITLE6=Totally Insane - The 4-1 - 1
TTITLE7=Totally Insane - The Bad Hand Too
TTITLE8=Totally Insane - Back Street Life (Outro)
TTITLE9=Totally Insane, 11-5 - Playaz and Hustlaz
TTITLE10=Totally Insane, Dre Dog, Henne - Total Insanity
TTITLE11=Totally Insane, Money Marc, Sc - Neighborhood Rockstarz
TTITLE12=Totally Insane, Mr. Ke-Weed - Mr. Ad Kapone
TTITLE13=Totally Insane, The Nut Case - G - Shit
EXTD=
EXTT0=
EXTT1=
EXTT2=
EXTT3=
EXTT4=
EXTT5=
EXTT6=
EXTT7=
EXTT8=
EXTT9=
EXTT10=
EXTT11=
EXTT12=
EXTT13=
PLAYORDER=
